<svg width="26" height="25" viewBox="0 0 26 25" fill="none" xmlns="http://www.w3.org/2000/svg">
<path d="M13.4375 9.52344C12.8488 9.52366 12.2735 9.69842 11.7841 10.0256C11.2948 10.3528 10.9134 10.8178 10.6883 11.3617C10.4632 11.9056 10.4044 12.5041 10.5194 13.0814C10.6344 13.6587 10.9179 14.189 11.3343 14.6051C11.7506 15.0213 12.281 15.3047 12.8583 15.4195C13.4357 15.5342 14.0341 15.4752 14.578 15.2499C15.1218 15.0246 15.5866 14.643 15.9136 14.1536C16.2406 13.6641 16.4152 13.0887 16.4152 12.5C16.4146 11.7106 16.1006 10.9536 15.5423 10.3955C14.984 9.83739 14.2269 9.52373 13.4375 9.52344ZM20.3968 7.23549C20.2452 6.85147 20.0164 6.50269 19.7245 6.21077C19.4326 5.91886 19.0838 5.69004 18.6998 5.5385C17.5279 5.07589 14.7377 5.17969 13.4375 5.17969C12.1373 5.17969 9.34989 5.07199 8.17467 5.5385C7.79065 5.69004 7.44186 5.91886 7.14995 6.21077C6.85803 6.50269 6.62921 6.85147 6.47768 7.23549C6.01562 8.40737 6.11886 11.2003 6.11886 12.4994C6.11886 13.7985 6.01562 16.5882 6.47991 17.7639C6.63144 18.148 6.86026 18.4968 7.15218 18.7887C7.4441 19.0806 7.79288 19.3094 8.1769 19.4609C9.34877 19.9235 12.139 19.8198 13.4397 19.8198C14.7405 19.8198 17.5268 19.9275 18.702 19.4609C19.086 19.3094 19.4348 19.0806 19.7267 18.7887C20.0186 18.4968 20.2475 18.148 20.399 17.7639C20.865 16.5921 20.7578 13.7991 20.7578 12.5C20.7578 11.2009 20.865 8.41183 20.399 7.23605L20.3968 7.23549ZM13.4375 17.0759C12.5325 17.0759 11.6478 16.8075 10.8953 16.3047C10.1428 15.8019 9.55626 15.0873 9.20993 14.2511C8.86359 13.415 8.77297 12.4949 8.94953 11.6073C9.12609 10.7197 9.5619 9.90431 10.2019 9.26435C10.8418 8.6244 11.6572 8.18859 12.5448 8.01203C13.4324 7.83547 14.3525 7.92609 15.1886 8.27243C16.0248 8.61876 16.7394 9.20527 17.2422 9.95777C17.745 10.7103 18.0134 11.595 18.0134 12.5C18.0141 13.1011 17.8963 13.6965 17.6666 14.252C17.4369 14.8075 17.0998 15.3122 16.6748 15.7373C16.2497 16.1623 15.745 16.4994 15.1895 16.7291C14.634 16.9588 14.0386 17.0766 13.4375 17.0759ZM18.202 8.80022C17.9907 8.80033 17.7842 8.73779 17.6085 8.62049C17.4327 8.5032 17.2958 8.33642 17.2148 8.14127C17.1339 7.94611 17.1127 7.73134 17.1538 7.52411C17.195 7.31689 17.2967 7.12652 17.446 6.97709C17.5954 6.82766 17.7857 6.72588 17.9929 6.68463C18.2001 6.64337 18.4149 6.66449 18.6101 6.74531C18.8053 6.82614 18.9721 6.96303 19.0895 7.13869C19.2069 7.31435 19.2695 7.52087 19.2695 7.73214C19.2701 7.87244 19.243 8.01147 19.1897 8.14127C19.1365 8.27106 19.0581 8.38906 18.9591 8.4885C18.8602 8.58794 18.7425 8.66686 18.613 8.72074C18.4834 8.77461 18.3445 8.80238 18.2042 8.80246L18.202 8.80022ZM23.2589 0H3.61607C2.90567 0 2.22436 0.282206 1.72204 0.784535C1.21971 1.28687 0.9375 1.96817 0.9375 2.67857L0.9375 22.3214C0.9375 23.0318 1.21971 23.7131 1.72204 24.2155C2.22436 24.7178 2.90567 25 3.61607 25H23.2589C23.9693 25 24.6506 24.7178 25.153 24.2155C25.6553 23.7131 25.9375 23.0318 25.9375 22.3214V2.67857C25.9375 1.96817 25.6553 1.28687 25.153 0.784535C24.6506 0.282206 23.9693 0 23.2589 0ZM22.3036 16.183C22.2316 17.6133 21.9051 18.8806 20.861 19.9219C19.817 20.9632 18.5508 21.2963 17.1222 21.3644C15.6484 21.4475 11.2299 21.4475 9.75614 21.3644C8.32589 21.2924 7.06306 20.9654 6.0173 19.9219C4.97154 18.8783 4.64286 17.6105 4.57478 16.183C4.49163 14.7087 4.49163 10.2896 4.57478 8.81696C4.64676 7.38672 4.96931 6.11942 6.0173 5.07812C7.06529 4.03683 8.33147 3.70759 9.75614 3.63951C11.2299 3.55636 15.6484 3.55636 17.1222 3.63951C18.5525 3.7115 19.8192 4.0385 20.861 5.08203C21.9029 6.12556 22.2355 7.39341 22.3036 8.82366C22.3867 10.2924 22.3867 14.7076 22.3036 16.183Z" fill="#F6D375"/>
</svg>
