<svg width="26" height="25" viewBox="0 0 26 25" fill="none" xmlns="http://www.w3.org/2000/svg">
<path d="M12.9375 9.52344C12.3488 9.52366 11.7735 9.69842 11.2841 10.0256C10.7948 10.3528 10.4134 10.8178 10.1883 11.3617C9.96319 11.9056 9.90441 12.5041 10.0194 13.0814C10.1344 13.6587 10.4179 14.189 10.8343 14.6051C11.2506 15.0213 11.781 15.3047 12.3583 15.4195C12.9357 15.5342 13.5341 15.4752 14.078 15.2499C14.6218 15.0246 15.0866 14.643 15.4136 14.1536C15.7406 13.6641 15.9152 13.0887 15.9152 12.5C15.9146 11.7106 15.6006 10.9536 15.0423 10.3955C14.484 9.83739 13.7269 9.52373 12.9375 9.52344ZM19.8968 7.23549C19.7452 6.85147 19.5164 6.50269 19.2245 6.21077C18.9326 5.91886 18.5838 5.69004 18.1998 5.5385C17.0279 5.07589 14.2377 5.17969 12.9375 5.17969C11.6373 5.17969 8.84989 5.07199 7.67467 5.5385C7.29065 5.69004 6.94186 5.91886 6.64995 6.21077C6.35803 6.50269 6.12921 6.85147 5.97768 7.23549C5.51562 8.40737 5.61886 11.2003 5.61886 12.4994C5.61886 13.7985 5.51562 16.5882 5.97991 17.764C6.13144 18.148 6.36026 18.4968 6.65218 18.7887C6.9441 19.0806 7.29288 19.3094 7.6769 19.4609C8.84877 19.9235 11.639 19.8198 12.9397 19.8198C14.2405 19.8198 17.0268 19.9275 18.202 19.4609C18.586 19.3094 18.9348 19.0806 19.2267 18.7887C19.5186 18.4968 19.7475 18.148 19.899 17.764C20.365 16.5921 20.2578 13.7991 20.2578 12.5C20.2578 11.2009 20.365 8.41183 19.899 7.23605L19.8968 7.23549ZM12.9375 17.0759C12.0325 17.0759 11.1478 16.8075 10.3953 16.3047C9.64277 15.8019 9.05626 15.0873 8.70993 14.2511C8.36359 13.415 8.27297 12.4949 8.44953 11.6073C8.62609 10.7197 9.0619 9.90431 9.70185 9.26435C10.3418 8.6244 11.1572 8.18859 12.0448 8.01203C12.9324 7.83547 13.8525 7.92609 14.6886 8.27243C15.5248 8.61876 16.2394 9.20527 16.7422 9.95777C17.245 10.7103 17.5134 11.595 17.5134 12.5C17.5141 13.1011 17.3963 13.6965 17.1666 14.252C16.9369 14.8075 16.5998 15.3122 16.1748 15.7373C15.7497 16.1623 15.245 16.4994 14.6895 16.7291C14.134 16.9588 13.5386 17.0766 12.9375 17.0759ZM17.702 8.80022C17.4907 8.80033 17.2842 8.73779 17.1085 8.62049C16.9327 8.50319 16.7958 8.33642 16.7148 8.14127C16.6339 7.94611 16.6127 7.73134 16.6538 7.52411C16.695 7.31689 16.7967 7.12652 16.946 6.97709C17.0954 6.82766 17.2857 6.72588 17.4929 6.68463C17.7001 6.64337 17.9149 6.66449 18.1101 6.74531C18.3053 6.82614 18.4721 6.96303 18.5895 7.13869C18.7069 7.31435 18.7695 7.52087 18.7695 7.73214C18.7701 7.87244 18.743 8.01147 18.6897 8.14127C18.6365 8.27106 18.5581 8.38906 18.4591 8.4885C18.3602 8.58794 18.2425 8.66686 18.113 8.72074C17.9834 8.77461 17.8445 8.80238 17.7042 8.80246L17.702 8.80022ZM22.7589 0H3.11607C2.40567 0 1.72436 0.282206 1.22204 0.784535C0.719706 1.28687 0.4375 1.96817 0.4375 2.67857L0.4375 22.3214C0.4375 23.0318 0.719706 23.7131 1.22204 24.2155C1.72436 24.7178 2.40567 25 3.11607 25H22.7589C23.4693 25 24.1506 24.7178 24.653 24.2155C25.1553 23.7131 25.4375 23.0318 25.4375 22.3214V2.67857C25.4375 1.96817 25.1553 1.28687 24.653 0.784535C24.1506 0.282206 23.4693 0 22.7589 0ZM21.8036 16.183C21.7316 17.6133 21.4051 18.8806 20.361 19.9219C19.317 20.9632 18.0508 21.2963 16.6222 21.3644C15.1484 21.4475 10.7299 21.4475 9.25614 21.3644C7.82589 21.2924 6.56306 20.9654 5.5173 19.9219C4.47154 18.8783 4.14286 17.6105 4.07478 16.183C3.99163 14.7087 3.99163 10.2896 4.07478 8.81696C4.14676 7.38672 4.46931 6.11942 5.5173 5.07812C6.56529 4.03683 7.83147 3.70759 9.25614 3.63951C10.7299 3.55636 15.1484 3.55636 16.6222 3.63951C18.0525 3.7115 19.3192 4.0385 20.361 5.08203C21.4029 6.12556 21.7355 7.39341 21.8036 8.82366C21.8867 10.2924 21.8867 14.7076 21.8036 16.183Z" fill="white"/>
</svg>
