<svg width="24" height="26" viewBox="0 0 24 26" fill="none" xmlns="http://www.w3.org/2000/svg">
<path d="M23.6863 10.6622C21.4501 10.6675 19.2687 9.97015 17.4503 8.66852V17.7464C17.4497 19.4278 16.9358 21.0689 15.9773 22.4502C15.0188 23.8316 13.6615 24.8874 12.0867 25.4766C10.512 26.0657 8.79494 26.16 7.16514 25.7469C5.53535 25.3338 4.07051 24.433 2.9665 23.1649C1.86249 21.8969 1.17193 20.3219 0.987152 18.6508C0.802377 16.9796 1.1322 15.2919 1.93251 13.8133C2.73283 12.3346 3.96549 11.1356 5.46567 10.3764C6.96585 9.61725 8.66204 9.33417 10.3274 9.56504V14.1309C9.56536 13.8912 8.74701 13.8984 7.98926 14.1516C7.23152 14.4047 6.57313 14.8908 6.10813 15.5404C5.64312 16.19 5.39527 16.97 5.39998 17.7689C5.40468 18.5677 5.6617 19.3447 6.13433 19.9888C6.60696 20.6329 7.27102 21.1112 8.03169 21.3554C8.79237 21.5996 9.61075 21.5972 10.37 21.3485C11.1292 21.0998 11.7904 20.6176 12.2592 19.9707C12.728 19.3238 12.9804 18.5454 12.9804 17.7464V0H17.4503C17.4472 0.377471 17.4788 0.754428 17.5448 1.12611C17.7001 1.95582 18.0231 2.74512 18.4939 3.44574C18.9647 4.14635 19.5735 4.74355 20.2831 5.20081C21.2926 5.86829 22.4761 6.22406 23.6863 6.2238V10.6622Z" fill="#F6D375"/>
</svg>
