<svg width="20" height="14" viewBox="0 0 20 14" fill="none" xmlns="http://www.w3.org/2000/svg">
<path d="M9.986 1.21454C6.85461 1.21454 3.64247 3.02692 1.11374 6.65167C1.04156 6.75628 1.00201 6.87993 1.00007 7.007C0.998143 7.13408 1.03392 7.25887 1.10289 7.36562C3.04584 10.407 6.215 12.7855 9.986 12.7855C13.716 12.7855 16.9503 10.3998 18.8968 7.35156C18.9642 7.2469 19 7.12507 19 7.00061C19 6.87615 18.9642 6.75432 18.8968 6.64967C16.9458 3.6364 13.6879 1.21454 9.986 1.21454Z" stroke="#18181B" stroke-width="2" stroke-linecap="round" stroke-linejoin="round"/>
<path d="M9.99967 10.2157C11.7748 10.2157 13.2138 8.77669 13.2138 7.00156C13.2138 5.22644 11.7748 3.78741 9.99967 3.78741C8.22455 3.78741 6.78552 5.22644 6.78552 7.00156C6.78552 8.77669 8.22455 10.2157 9.99967 10.2157Z" stroke="#18181B" stroke-width="2" stroke-miterlimit="10"/>
</svg>
