<svg width="40" height="10" viewBox="0 0 40 10" fill="none" xmlns="http://www.w3.org/2000/svg">
<path d="M0 1.23306C0.425261 1.23306 0.850524 1.21622 1.27158 1.23306C3.35579 1.32148 5.43999 1.41832 7.52841 1.51938C9.77683 1.62464 12.0252 1.69622 14.2737 1.80569C15.1495 1.8478 15.941 1.59938 16.7452 1.34674C17.4021 1.14043 18.0589 0.942534 18.7242 0.761482C19.5621 0.534113 20.3874 0.550955 21.2252 0.782534C21.9663 0.984639 22.7031 1.19096 23.4231 1.4478C24.261 1.74675 25.1073 1.83096 25.9958 1.78885C28.9389 1.64569 31.8821 1.54043 34.8295 1.41411C36.4463 1.34253 38.0631 1.25832 39.68 1.18253C39.7389 1.18253 39.8231 1.14464 39.8568 1.19938C39.9031 1.27517 39.8105 1.32148 39.7726 1.37622C39.4989 1.7678 39.1116 1.96148 38.6442 2.02043C37.0358 2.22253 35.4231 2.34464 33.8105 2.49622C31.6042 2.70253 29.3937 2.85832 27.1958 3.1278C26.9095 3.16148 26.6231 3.22885 26.3368 3.27938C25.5747 3.41832 25.0526 3.86464 24.6863 4.53411C24.2779 5.28359 23.8316 6.0078 23.2631 6.6478C22.3663 7.65833 21.28 8.39938 20.0842 9.00148C19.9579 9.06464 19.861 9.03096 19.7474 8.97622C17.8105 8.03727 16.2989 6.6478 15.2926 4.73201C15.2421 4.63938 15.1874 4.54675 15.1368 4.45411C14.7663 3.7678 14.181 3.39727 13.4231 3.25411C12.3874 3.05622 11.3389 2.98043 10.2947 2.87938C8.93893 2.74885 7.57893 2.63938 6.22315 2.51727C4.77894 2.38674 3.33894 2.2478 1.89894 2.10885C1.65052 2.08359 1.40631 2.05411 1.15789 2.01622C0.639998 1.94043 0.252631 1.66675 0.00421053 1.23727L0 1.23306ZM19.8821 1.27938C19.7937 1.29201 19.68 1.30043 19.5663 1.32148C18.7831 1.46885 18.021 1.69201 17.2674 1.94464C16.8295 2.09201 16.3831 2.21832 15.9958 2.47938C15.7221 2.66043 15.6463 2.86253 15.7221 3.17411C15.8905 3.88148 16.1684 4.55096 16.5305 5.17832C17.3137 6.55096 18.4884 7.51517 19.8316 8.29412C19.9326 8.35306 20.0042 8.30675 20.0842 8.26043C20.5642 7.98675 21.0189 7.67096 21.4568 7.32991C22.8042 6.26885 23.6716 4.90043 24.1263 3.25411C24.2358 2.86253 24.1474 2.64359 23.8021 2.42885C23.701 2.36569 23.5916 2.31517 23.4779 2.26885C22.7242 1.95306 21.941 1.71727 21.1537 1.51095C20.741 1.40148 20.3326 1.2878 19.8779 1.27517L19.8821 1.27938Z" fill="#18181B"/>
<path d="M1.25049 2.52539C1.65891 2.55907 2.06733 2.59276 2.47575 2.63065C3.95365 2.7696 5.43154 2.90013 6.90523 3.05592C8.7747 3.25381 10.6526 3.37171 12.5179 3.64539C12.7621 3.68329 13.0063 3.73802 13.2505 3.78013C13.8147 3.88118 14.2021 4.23908 14.5221 4.67697C14.8631 5.14855 15.1831 5.63276 15.52 6.10855C15.9494 6.71066 16.4379 7.26223 17.0189 7.7296C17.0442 7.75066 17.0652 7.77592 17.1368 7.83908C15.7473 7.63697 14.4547 7.30434 13.1705 6.87065C13.4905 6.84539 13.8105 6.82013 14.1305 6.79487C14.3494 6.77802 14.5684 6.76539 14.7873 6.74855C14.821 6.74855 14.8673 6.74013 14.88 6.71908C14.9136 6.67276 14.8673 6.63908 14.8421 6.61381C14.64 6.39065 14.3789 6.32329 14.0926 6.34013C13.4063 6.37802 12.7158 6.39066 12.0294 6.38645C11.0105 6.38223 10.0379 6.11697 9.06101 5.86855C8.40417 5.70013 7.75154 5.50644 7.10733 5.25381C7.33891 5.25381 7.5747 5.25381 7.80628 5.25381C9.37259 5.2875 10.9431 5.32118 12.5094 5.35065C12.581 5.35065 12.6905 5.40118 12.7158 5.31276C12.741 5.22855 12.64 5.1696 12.5726 5.11908C12.3831 4.98013 12.16 4.93381 11.9284 4.92539C10.2189 4.86223 8.50944 4.78223 6.80417 4.65592C5.80628 4.58013 4.80838 4.51276 3.83575 4.23908C2.79575 3.94434 1.98312 3.31276 1.2547 2.52539H1.25049Z" fill="#18181B"/>
<path d="M32.7578 5.24158C32.2315 5.47737 31.6799 5.63737 31.1284 5.78895C30.3494 5.99948 29.5663 6.21842 28.7621 6.31948C27.7852 6.44579 26.8042 6.39105 25.8273 6.34053C25.5494 6.3279 25.2884 6.37 25.0778 6.57211C25.0357 6.61 24.9768 6.65211 24.9936 6.71106C25.0147 6.78263 25.0905 6.74895 25.141 6.75316C25.5789 6.78684 26.021 6.81632 26.4589 6.85C26.5389 6.85842 26.6273 6.84158 26.7368 6.91737C25.4273 7.30895 24.1347 7.63737 22.8168 7.83527C22.7873 7.79316 22.8126 7.77211 22.8294 7.75526C23.6631 7.10263 24.2778 6.26053 24.8589 5.38895C25.0399 5.11947 25.2336 4.85421 25.4231 4.58895C25.781 4.0879 26.2736 3.82263 26.8799 3.71737C28.2021 3.48579 29.541 3.38474 30.8757 3.25421C32.0968 3.13211 33.3178 3.01 34.5431 2.89211C35.5326 2.79526 36.5221 2.70684 37.5115 2.61842C37.8147 2.58895 38.1178 2.56369 38.4252 2.53842C38.4926 2.53421 38.5642 2.50474 38.6568 2.56368C38.5473 2.66895 38.4378 2.76579 38.3368 2.86684C37.2631 3.94053 35.9284 4.39526 34.4505 4.53421C32.2989 4.73632 30.1473 4.83737 27.9873 4.92158C27.8021 4.93 27.621 4.95948 27.4484 5.03948C27.3178 5.09842 27.1999 5.17421 27.1368 5.35526C29.0273 5.31737 30.8926 5.27948 32.7621 5.23737L32.7578 5.24158Z" fill="#18181B"/>
<path d="M19.5451 3.86022C19.5451 3.63706 19.5451 3.47285 19.5451 3.31285C19.5451 3.24127 19.5577 3.18653 19.6461 3.18653C19.7346 3.18653 19.7472 3.24548 19.7472 3.31706C19.7472 3.57811 19.7472 3.83916 19.7472 4.10443C19.7472 4.16338 19.7682 4.24338 19.6882 4.26864C19.6082 4.2939 19.5367 4.26864 19.4819 4.20127C19.3472 4.02864 19.2082 3.86022 19.0567 3.67074C18.9851 3.82653 19.0314 3.9739 19.0188 4.11285C19.0146 4.19285 19.0272 4.28127 18.9093 4.27285C18.7998 4.26864 18.8251 4.18022 18.8209 4.11285C18.7914 3.82653 18.8882 3.53601 18.7619 3.25811C18.7451 3.22022 18.783 3.19496 18.8209 3.19074C18.9051 3.18232 18.9893 3.1739 19.0525 3.2539C19.1577 3.38864 19.263 3.52338 19.3682 3.6539C19.4103 3.70864 19.4567 3.75917 19.5451 3.86443V3.86022Z" fill="#18181B"/>
<path d="M17.6082 3.98713C17.6713 4.19766 17.5113 4.25239 17.3261 4.28187C16.8292 4.35766 16.5092 4.0166 16.6355 3.54923C16.724 3.2166 17.2082 3.03976 17.5155 3.22081C17.5787 3.25871 17.5871 3.30502 17.5661 3.36397C17.5324 3.45239 17.4776 3.40608 17.4313 3.38502C17.2713 3.31344 17.1113 3.2966 16.9808 3.43976C16.8587 3.57029 16.8545 3.7345 16.905 3.89871C16.9303 3.98292 16.985 4.04608 17.0692 4.08818C17.1619 4.1345 17.2797 4.16818 17.3429 4.07976C17.3976 3.99976 17.4145 3.87766 17.3008 3.80187C17.2713 3.78081 17.2376 3.75555 17.2629 3.71766C17.2755 3.70081 17.3092 3.6966 17.3387 3.69239C17.5829 3.65029 17.6166 3.68397 17.6124 3.99555L17.6082 3.98713Z" fill="#18181B"/>
<path d="M17.8482 3.74164C17.8187 3.60269 17.8945 3.43006 17.7977 3.26585C17.7598 3.20269 17.8271 3.18164 17.8819 3.18164C18.0714 3.18164 18.265 3.18164 18.4545 3.18164C18.5219 3.18164 18.5682 3.20269 18.5766 3.27427C18.585 3.37111 18.5093 3.34585 18.4587 3.34585C18.3871 3.35006 18.3156 3.35427 18.2482 3.34585C18.1345 3.33743 18.1008 3.38796 18.1008 3.49743C18.1008 3.60269 18.1514 3.62375 18.244 3.63217C18.3408 3.64059 18.5135 3.56901 18.5135 3.69533C18.5135 3.85954 18.3366 3.77111 18.2398 3.77532C18.1008 3.78375 18.105 3.85953 18.1008 3.96059C18.0966 4.07427 18.1429 4.11217 18.2524 4.10796C18.3366 4.10375 18.4208 4.10796 18.5093 4.10796C18.564 4.10796 18.6061 4.12901 18.6019 4.19638C18.6019 4.25111 18.564 4.27217 18.5177 4.27217C18.3282 4.27217 18.1345 4.27217 17.945 4.27217C17.8566 4.27217 17.8566 4.19638 17.8566 4.13322C17.8566 4.01111 17.8566 3.89322 17.8566 3.74585L17.8482 3.74164Z" fill="#18181B"/>
<path d="M21.2422 4.29396C21.158 4.28554 21.0906 4.27712 21.0191 4.26449C20.9475 4.25607 20.9012 4.22239 20.9138 4.13818C20.9306 4.03712 20.9938 4.0666 21.057 4.07923C21.1243 4.09607 21.1959 4.1087 21.2675 4.11291C21.3306 4.11291 21.398 4.10449 21.4191 4.0287C21.4359 3.95291 21.3854 3.9066 21.3306 3.87712C21.238 3.82238 21.1412 3.78449 21.0527 3.72554C20.9433 3.65397 20.8885 3.5487 20.9138 3.41818C20.9391 3.29186 21.0317 3.2287 21.1454 3.19502C21.2843 3.15291 21.4275 3.16554 21.5664 3.19502C21.6212 3.20765 21.6759 3.23291 21.6549 3.31291C21.6338 3.3887 21.5875 3.38449 21.5243 3.36765C21.4064 3.33396 21.2422 3.25396 21.1833 3.40133C21.1243 3.5487 21.3264 3.55712 21.4149 3.6287C21.4527 3.65818 21.4991 3.67923 21.5412 3.70449C21.6549 3.78449 21.718 3.88975 21.6927 4.0287C21.6675 4.16344 21.5664 4.23081 21.4443 4.26449C21.377 4.28554 21.3054 4.28554 21.2464 4.29396H21.2422Z" fill="#18181B"/>
<path d="M20.0128 3.74585C19.9833 3.61111 20.0591 3.43848 19.9665 3.27427C19.9201 3.19848 19.9917 3.18164 20.0549 3.18164C20.2444 3.18164 20.438 3.18164 20.6275 3.18164C20.6949 3.18164 20.7412 3.21111 20.7412 3.27848C20.7412 3.3669 20.6654 3.34164 20.6149 3.34585C20.5517 3.35006 20.4886 3.35006 20.4254 3.34585C20.3159 3.33743 20.2738 3.37953 20.2738 3.49322C20.2738 3.59427 20.3117 3.62375 20.4128 3.63217C20.5054 3.64059 20.6822 3.5648 20.6822 3.69954C20.6822 3.86375 20.5012 3.77111 20.4086 3.77953C20.2822 3.79217 20.278 3.85532 20.278 3.94796C20.278 4.0448 20.2907 4.11638 20.4128 4.10796C20.5054 4.10375 20.598 4.10796 20.6907 4.10796C20.7412 4.10796 20.7707 4.13743 20.7707 4.18796C20.7707 4.23848 20.737 4.26796 20.6907 4.26796C20.5012 4.26796 20.3075 4.26796 20.118 4.26796C20.0296 4.26796 20.0212 4.2048 20.0212 4.13322C20.0212 4.01111 20.0212 3.89322 20.0212 3.74164L20.0128 3.74585Z" fill="#18181B"/>
<path d="M22.741 4.2935C22.6652 4.28087 22.5894 4.27245 22.5136 4.25982C22.4462 4.24719 22.4252 4.20087 22.4336 4.1335C22.4462 4.04929 22.4968 4.0535 22.5557 4.07455C22.6441 4.10403 22.7326 4.12087 22.8252 4.10824C22.8757 4.09982 22.922 4.07455 22.9347 4.02403C22.9515 3.96929 22.9178 3.92297 22.8757 3.90192C22.7831 3.84718 22.6862 3.80929 22.5936 3.75455C22.4715 3.68297 22.3789 3.58192 22.4083 3.42613C22.4378 3.26192 22.5641 3.20297 22.7157 3.17771C22.8336 3.15666 22.9557 3.16508 23.0736 3.19455C23.1326 3.21139 23.1747 3.24508 23.162 3.31666C23.1452 3.40087 23.0904 3.37982 23.0315 3.36718C22.9136 3.34192 22.7494 3.2535 22.6947 3.40508C22.6399 3.55245 22.8378 3.56087 22.9262 3.63245C22.9599 3.65771 22.9978 3.67455 23.0357 3.69561C23.162 3.7714 23.2294 3.88508 23.2041 4.03245C23.1789 4.17561 23.0652 4.23876 22.9389 4.27666C22.8799 4.2935 22.8126 4.2935 22.7494 4.29771L22.741 4.2935Z" fill="#18181B"/>
<path d="M22.1769 3.73859C22.1769 3.83543 22.1853 3.93649 22.1769 4.03333C22.1685 4.12175 22.2443 4.26491 22.059 4.26912C21.8737 4.27333 21.9327 4.13438 21.9327 4.04596C21.9243 3.86491 21.9327 3.67964 21.9327 3.49438C21.9327 3.44385 21.9285 3.39754 21.9243 3.34701C21.9201 3.29649 21.819 3.26701 21.8864 3.20807C21.9495 3.15333 22.038 3.17859 22.1095 3.18701C22.198 3.19543 22.1811 3.27543 22.1853 3.33859C22.1853 3.47333 22.1853 3.60806 22.1853 3.73859H22.1769Z" fill="#18181B"/>
</svg>
