<svg width="20" height="18" viewBox="0 0 20 18" fill="none" xmlns="http://www.w3.org/2000/svg">
<path d="M4.5 4.5L1 13M4.5 4.5L8 13M4.5 4.5L8.55249 3.39478M1 13C1 14.933 2.567 16.5 4.5 16.5C6.433 16.5 8 14.933 8 13M1 13H8M15.5 1.5L12 10M15.5 1.5L19 10M15.5 1.5L11.4475 2.60522M12 10C12 11.933 13.567 13.5 15.5 13.5C17.433 13.5 19 11.933 19 10M12 10H19M11.4475 2.60522C11.2742 1.96832 10.6918 1.5 10 1.5C9.17157 1.5 8.5 2.17157 8.5 3C8.5 3.13663 8.51827 3.26899 8.55249 3.39478M11.4475 2.60522C11.4817 2.73101 11.5 2.86337 11.5 3C11.5 3.82843 10.8284 4.5 10 4.5C9.3082 4.5 8.72578 4.03168 8.55249 3.39478" stroke="black" stroke-width="1.5"/>
</svg>
