<svg width="18" height="18" viewBox="0 0 18 18" fill="none" xmlns="http://www.w3.org/2000/svg">
<path d="M7.63629 1.5C6.42265 1.5 5.23626 1.85989 4.22715 2.53415C3.21805 3.20842 2.43154 4.16677 1.9671 5.28803C1.50266 6.4093 1.38114 7.6431 1.61791 8.83342C1.85468 10.0237 2.43911 11.1171 3.29728 11.9753C4.15546 12.8335 5.24884 13.4179 6.43916 13.6547C7.62949 13.8914 8.86329 13.7699 9.98455 13.3055C11.1058 12.841 12.0642 12.0545 12.7384 11.0454C13.4127 10.0363 13.7726 8.84994 13.7726 7.63629C13.7725 6.00888 13.1259 4.44815 11.9752 3.29739C10.8244 2.14664 9.26371 1.5001 7.63629 1.5Z" stroke="#18181B" stroke-width="1.5"/>
<path d="M12.2144 12.2148L16.4999 16.5004" stroke="#18181B" stroke-width="1.5"/>
</svg>
